<?xml version="1.0" encoding="UTF-8"?>
<svg id="Layer_3" data-name="Layer 3" xmlns="http://www.w3.org/2000/svg" viewBox="0 0 12.66 10.44">
  <defs>
    <style>
      .cls-1 {
        fill: #fff;
      }
    </style>
  </defs>
  <g>
    <path d="m2.36,2.17c.06,0,.11,0,.16,0,1.41,0,2.82,0,4.23,0"/>
    <g>
      <path d="m3.03,8.47c.83,1.34,2.57,2.28,4.46,1.88,1.28-.27,2.22-1.01,2.88-2.14-.25-.13-.47-.24-.69-.36-.65,1.12-1.62,1.71-2.91,1.82-.59-.13-1.21-.26-1.81-.48-.65-.24-1.29-.46-1.94-.73Z"/>
      <path d="m8.72,2.6c-.63-.29-1.29-.42-1.97-.42H2.36s0,.08,0,.11c0,1.04.02,2.08,0,3.12.04.46.13.86.38,1.23.28.42.65.77,1.04,1.09.58.47,1.2.87,1.84,1.25.23.13.45.3.68.42.13.08.35.21.48.28V2.85c1.29.06,2.34.54,3.05,1.65.23-.11.45-.21.68-.32-.16-.28-.34-.51-.56-.72-.36-.36-.76-.65-1.23-.87Z"/>
      <path d="m10.47,1.09c0-.63.46-1.08,1.09-1.09.64,0,1.1.55,1.1,1.08,0,.54-.46,1.11-1.1,1.11-.62,0-1.09-.47-1.09-1.1Z"/>
      <path d="m.84,4.45C.37,4.44,0,4.08,0,3.6c0-.47.37-.84.84-.84.49,0,.87.37.87.84,0,.48-.38.84-.87.84Z"/>
      <path d="m10.86,10.18c-.32,0-.57-.25-.57-.57,0-.32.25-.57.56-.57.29,0,.61.26.6.58,0,.3-.28.57-.6.57Z"/>
    </g>
  </g>
  <line class="cls-1" x1="6.82" y1="10.2" x2="7.05" y2="10.18"/>
</svg>